<?xml version="1.0" encoding="utf-8"?>
<!-- Generator: Adobe Illustrator 24.0.1, SVG Export Plug-In . SVG Version: 6.00 Build 0)  -->
<svg version="1.1" id="_圖層_1" xmlns="http://www.w3.org/2000/svg" xmlns:xlink="http://www.w3.org/1999/xlink" x="0px" y="0px"
	 viewBox="0 0 800 359" style="enable-background:new 0 0 800 359;" xml:space="preserve">
<style type="text/css">
	.st0{fill:#008400;}
	.st1{fill:#D2F6C6;}
	.st2{fill:#36C000;}
	.st3{fill:#FFFFFF;}
</style>
<path class="st0" d="M440.2,196.7c0,41.2,0,82.4,0,123.6c0,7-0.3,14.1-5.5,14.1s-5.6-7.3-5.6-14.2c0-82.4,0-164.8,0-247.3
	c0-6,0.1-12.2,4.5-14c4.1-1.6,6.6,3.3,6.6,13.1c0,41.5,0,83.1,0,124.6V196.7z"/>
<path class="st0" d="M450.8,196V75.3c0-2.3,0-4.6,0-6.9c0.1-5.8,2-9.3,5.3-9.7c3.5-0.4,5.1,3.7,5.7,9c0.3,2.5,0.2,5.2,0.2,7.8
	c0,80.5,0,160.9,0,241.4c0,7.4,0.7,17-5.5,17.3c-7,0.3-5.6-10-5.6-17.6c0-40.2,0-80.4,0-120.7L450.8,196z"/>
<path class="st0" d="M418.5,196.8v65.7c0,2.3,0,4.6,0,6.9c-0.2,6.1-2,10.2-5.7,9.8c-3.4-0.3-4.9-4.3-4.9-10.1c0-48.4,0-96.8,0-145.2
	c0-6.3,1.8-10,5.6-9.6c3.9,0.4,5,4.9,5,10.9C418.5,149.1,418.5,172.9,418.5,196.8L418.5,196.8z"/>
<path class="st0" d="M483.1,196.5c0,22.9,0,45.8,0,68.7c0,6.9,0,14.3-5.4,14c-4.8-0.2-5.3-6.9-5.2-13.6c0-46.1,0-92.2,0-138.3
	c0-6.8,0.4-13,5.5-12.9c4.7,0.1,5.2,6.1,5.1,12.5c0,23.2,0,46.4,0,69.7V196.5z"/>
<path class="st0" d="M396.7,196.9c0,17.3,0,34.7,0,52c0,6.2-0.7,11.8-5,11.8c-4.4,0-5.6-5.2-5.6-12c0-34.7,0-69.4,0-104
	c0-6.7,1.1-12.3,5.4-12.3c4.6,0,5.2,6.1,5.1,12.6c0,17.4,0,34.7,0,52L396.7,196.9z"/>
<path class="st0" d="M494.3,196.7c0-17.3,0-34.7,0-52c0-6.5,0.7-12.5,5.3-12.3c4.4,0.2,5.3,5.9,5.3,12.6c0,34.3,0,68.7,0,103.1
	c0,6.6-0.8,12.4-5.2,12.7c-5.1,0.3-5.4-6.3-5.4-13c0-17,0-34,0-51L494.3,196.7z"/>
<path class="st0" d="M353.9,197c0,11.1,0,22.2,0,33.4c0,6-0.9,11.4-5.2,11.7c-4.7,0.3-5.7-5.4-5.7-11.8c0-22.6,0-45.1,0-67.7
	c0-6.6,1.3-12.3,5.7-11.9c3.9,0.4,5.2,5.6,5.2,11.9c0,11.4,0,22.9,0,34.3V197z"/>
<path class="st0" d="M537.1,196c0-10.8,0-21.6,0-32.4c0-6.6,0.9-12.5,5.2-12.9c4.9-0.4,5.8,6.1,5.8,12.8c0,22.2,0,44.5,0,66.7
	c0,6.4-1,12.1-5.7,11.8c-4.3-0.3-5.2-5.7-5.2-11.7C537.2,218.9,537.2,207.4,537.1,196L537.1,196z"/>
<path class="st0" d="M332.1,197.2c0,11.4,0,22.9,0,34.3c0,6.1-1.1,10.4-5,10.6c-4.3,0.2-5.5-4.5-5.5-10.9c0-23.2,0-46.4,0-69.5
	c0-6,1.3-10.8,5-10.8c3.9,0,5.6,4.4,5.5,11.1c-0.1,11.8,0,23.5,0,35.3V197.2z"/>
<path class="st0" d="M569.4,197c0,11.4,0,22.9,0,34.3c0,6.4-1.2,11.1-5.5,10.8c-3.9-0.2-5-4.6-5-10.7c0-23.2,0-46.4,0-69.5
	c0-6.7,1.6-11.1,5.5-11c3.7,0,5,4.9,5,10.9c0,11.7,0,23.5,0,35.3V197z"/>
<path class="st0" d="M364.3,196.6c0-5.9-0.2-11.8,0-17.6c0.3-5.7,2-9.8,5.9-9.5c3.7,0.3,5.1,4.4,5.2,9.7c0.2,11.8,0.2,23.5,0,35.3
	c0,5.5-2.1,9.6-5.3,9.8c-3.6,0.2-5.6-4.2-5.8-10C364,208.4,364.3,202.5,364.3,196.6L364.3,196.6z"/>
<path class="st1" d="M526.7,196.4c0,5.6,0,11.1,0,16.7c-0.1,6.3-1.9,11.2-5.8,11.1c-3.5,0-5.4-4.6-5.5-10.6
	c-0.1-11.4-0.2-22.9,0-34.3c0.1-5.8,1.7-10,5.7-9.9s5.3,4.7,5.5,10.3C526.8,185.2,526.6,190.8,526.7,196.4L526.7,196.4z"/>
<path class="st0" d="M299.9,195.4c0-5.5,0-11.1,0-16.6c0-5.2,1.5-8.7,4.7-9.3c3.5-0.7,5.8,2.4,5.9,8c0.3,12.6,0.3,25.3,0,38
	c-0.1,5.4-2.4,9.3-5.7,8.6c-3.1-0.6-5-4.4-5-10.2v-18.5H299.9z"/>
<path class="st1" d="M591.2,196c0,5.9,0,11.7,0,17.6c0,6.2-1.9,10.2-5.3,10.6c-3.3,0.3-5.4-3.8-5.5-9.3c-0.2-12-0.3-24.1,0-36.1
	c0.1-5.8,2-9.9,5.9-9.3c3.5,0.5,4.9,4.3,4.9,9.9C591.2,184.9,591.2,190.5,591.2,196L591.2,196z"/>
<path class="st1" d="M294.2,196.7c0,3.2,0,6.5,0,9.7c-0.1,5-1.8,7.8-4.6,8.2c-3.1,0.5-5.3-2.4-5.6-7.5c-0.4-6.4-0.2-13-0.2-19.5
	c0-5.8,2.2-9.3,5.4-9.3c3.3,0,5.2,3.4,5.1,9.5c0,2.9,0,5.9,0,8.8l0,0L294.2,196.7z"/>
<path class="st0" d="M596.8,196.5c0-3.3,0-6.5,0-9.8c0-5.8,2.3-8.4,5.2-8.3c2.9,0,5.1,3.1,5.2,8.6c0.2,6.2,0.2,12.4,0,18.5
	c-0.1,5.6-1.9,9.3-5.4,9.2c-3.4-0.1-5.1-3.7-5.1-9.5v-8.8l0,0L596.8,196.5z"/>
<path class="st0" d="M213.2,192.3c0,41.2,0,82.4,0,123.6c0,7-0.3,14.1-5.5,14.1s-5.6-7.3-5.6-14.2c0-82.4,0-164.8,0-247.3
	c0-6,0.1-12.2,4.5-14c4.1-1.6,6.6,3.3,6.6,13.1c0,41.5,0,83.1,0,124.6V192.3z"/>
<path class="st0" d="M223.8,191.6V70.9c0-2.3,0-4.6,0-6.9c0.1-5.8,2-9.3,5.3-9.7c3.5-0.4,5.1,3.7,5.7,9c0.3,2.5,0.2,5.2,0.2,7.8
	c0,80.5,0,160.9,0,241.4c0,7.4,0.7,17-5.5,17.3c-7,0.3-5.6-10-5.6-17.6c0-40.2,0-80.4,0-120.7L223.8,191.6z"/>
<path class="st0" d="M191.5,192.4v65.7c0,2.3,0,4.6,0,6.9c-0.2,6.1-2,10.2-5.7,9.8c-3.4-0.3-4.9-4.3-4.9-10.1c0-48.4,0-96.8,0-145.2
	c0-6.3,1.8-10,5.6-9.6c3.9,0.4,5,4.9,5,10.9C191.5,144.7,191.5,168.5,191.5,192.4L191.5,192.4z"/>
<path class="st0" d="M256.1,192.1c0,22.9,0,45.8,0,68.7c0,6.9,0,14.3-5.4,14c-4.8-0.2-5.3-6.9-5.2-13.6c0-46.1,0-92.2,0-138.3
	c0-6.8,0.4-13,5.5-12.9c4.7,0.1,5.2,6.1,5.1,12.5C256.1,145.7,256.1,168.9,256.1,192.1L256.1,192.1z"/>
<path class="st0" d="M169.7,192.5c0,17.3,0,34.7,0,52c0,6.2-0.7,11.8-5,11.8c-4.4,0-5.6-5.2-5.6-12c0-34.7,0-69.4,0-104
	c0-6.7,1.1-12.3,5.4-12.3c4.6,0,5.2,6.1,5.1,12.6c0,17.4,0,34.7,0,52L169.7,192.5z"/>
<path class="st0" d="M267.3,192.2c0-17.3,0-34.7,0-52c0-6.5,0.7-12.5,5.3-12.3c4.4,0.2,5.3,5.9,5.3,12.6c0,34.3,0,68.7,0,103
	c0,6.6-0.8,12.4-5.2,12.7c-5.1,0.3-5.4-6.3-5.4-13C267.3,226.2,267.3,209.2,267.3,192.2L267.3,192.2z"/>
<path class="st0" d="M126.9,192.6c0,11.1,0,22.2,0,33.4c0,6-0.9,11.4-5.2,11.7c-4.7,0.3-5.7-5.4-5.7-11.8c0-22.6,0-45.1,0-67.7
	c0-6.6,1.3-12.3,5.7-11.9c3.9,0.4,5.2,5.6,5.2,11.9c0,11.4,0,22.9,0,34.3V192.6z"/>
<path class="st0" d="M105.1,192.8c0,11.4,0,22.9,0,34.3c0,6.1-1.1,10.4-5,10.6c-4.3,0.2-5.5-4.5-5.5-10.9c0-23.2,0-46.4,0-69.5
	c0-6,1.3-10.8,5-10.8c3.9,0,5.6,4.4,5.5,11.1c-0.1,11.8,0,23.5,0,35.3V192.8z"/>
<path class="st0" d="M137.4,192.2c0-5.9-0.2-11.8,0-17.6c0.3-5.7,2-9.8,5.9-9.5c3.7,0.3,5.1,4.4,5.2,9.7c0.2,11.8,0.2,23.5,0,35.3
	c0,5.5-2.1,9.6-5.3,9.8c-3.6,0.2-5.6-4.2-5.8-10C137.1,204,137.4,198.1,137.4,192.2L137.4,192.2z"/>
<path class="st1" d="M72.9,191c0-5.5,0-11.1,0-16.6c0-5.2,1.5-8.7,4.7-9.3c3.5-0.7,5.8,2.4,5.9,8c0.3,12.6,0.3,25.3,0,38
	c-0.1,5.4-2.4,9.3-5.7,8.6c-3.1-0.6-5-4.4-5-10.2L72.9,191L72.9,191z"/>
<path class="st1" d="M67.2,192.3c0,3.2,0,6.5,0,9.7c-0.1,5-1.8,7.8-4.6,8.2c-3.1,0.5-5.3-2.4-5.6-7.5c-0.4-6.4-0.2-13-0.2-19.5
	c0-5.8,2.2-9.3,5.4-9.3c3.3,0,5.2,3.4,5.1,9.5c0,2.9,0,5.9,0,8.8l0,0L67.2,192.3z"/>
<path class="st2" d="M627.1,34.4C627,23,618,14.6,606.7,14.6c-28.1,0-56.2,0-84.4,0c-11.3,0-20.3,9-20.4,20.4
	c-0.1,19.8,0,17.9,0,37.7c0,5.8,2.3,10.6,6.4,14.7c5.5,5.4,12.3,5.9,19.4,5.7c7.3-0.2,7.4,0,6.2,7.4c0,0.4-0.3,0.9-0.3,1.3
	c-0.8,6.5-1.6,12.9-2.5,20.4c1.8-1.2,2.7-1.8,3.5-2.4c11.2-8.1,22.4-16.2,33.5-24.4c2.2-1.7,4.5-2.5,7.3-2.4c10.3,0.2,20.5,0,30.8,0
	c11.6,0,20.6-8.5,20.8-20c0.2-20.1,0.2-18.5,0-38.6L627.1,34.4z"/>
<path class="st3" d="M539.3,59.5c0.1-1.9,0.2-4.5,0.3-7.7h4.4c0.5,0,1.7,0,3.7,0c-0.1,1.5-0.2,4.1-0.4,7.7h-3.7
	C543.3,59.5,541.9,59.5,539.3,59.5z"/>
<path class="st3" d="M560.8,59.5c0.1-1.9,0.2-4.5,0.3-7.7h4.4c0.5,0,1.7,0,3.7,0c-0.1,1.5-0.2,4.1-0.4,7.7h-3.7
	C564.8,59.5,563.4,59.5,560.8,59.5z"/>
<path class="st3" d="M582.3,59.5c0.1-1.9,0.2-4.5,0.3-7.7h4.4c0.5,0,1.7,0,3.7,0c-0.1,1.5-0.2,4.1-0.4,7.7h-3.7
	C586.3,59.5,584.9,59.5,582.3,59.5z"/>
<path class="st1" d="M21.1,228.1l1.7-7.4c3.6,0.3,8.5,0.6,12.5,0.6c8.1,0,11.7-3.5,13.5-10.7c0.6-2.8,1.1-6.1,0.6-10.1
	c-0.6-4.3-2-10.4-5.1-20.3c-2.5-8.3-3.9-14.2-4.6-18.5c-0.9-6.4-0.6-11.7,0.6-16.5c3-13.4,12.7-24,34.2-24s9.1,0.7,12.9,1.6
	l-1.7,7.4c-3-0.3-6.2-0.6-9.4-0.6c-8.3,0-12.6,3.1-14.2,10c-0.7,2.9-1,5.5-0.4,10.6c0.7,3.9,2.2,10.6,5.5,20.7
	c2.8,8.8,4.3,15.6,4.9,20.1c0.9,5.4,0.4,11.1-0.7,15.9c-2.8,12.6-13.3,22.9-33,22.9s-12.2-0.7-17.1-1.6L21.1,228.1z"/>
<path class="st1" d="M92.1,225.8l-6.9,29.1H64.8l22.5-97.4h20l-0.9,3.9c3.9-3.3,8.4-5.1,12.9-5.1c10.6,0,18.2,9.6,11.4,39.4
	c-6.8,29.2-17.4,34.3-28.4,34.3S94.6,228.7,92.1,225.8L92.1,225.8z M109.2,193.7c6.1-25.6,4.2-27.9-0.1-27.9s-2.5,0.4-3.5,0.9
	l-12.2,53c0.7,0.4,1.9,0.9,2.9,0.9C100.5,220.6,103.2,220.2,109.2,193.7L109.2,193.7L109.2,193.7z"/>
<path class="st1" d="M135,190.6c6.7-28.8,18-34.3,32.2-34.3s22.2,7.4,15.6,34.9c-0.6,2.8-1.4,6.4-2,8.3h-27.5
	c-4.5,19.8-2,22.2,6.8,22.2s8.8-0.1,13-0.4l-1.4,6.8c-5.2,0.7-10.4,1.4-16.6,1.4c-16.8,0-27.5-6.5-20-38.8L135,190.6z M154.8,192.2
	h8.1c5.6-25.2,5.6-28.4,2.6-28.4s-4.6,2.8-10.6,28.1v0.3L154.8,192.2z"/>
<path class="st1" d="M186.8,190.6c6.7-28.8,18-34.3,32.2-34.3s22.2,7.4,15.6,34.9c-0.6,2.8-1.4,6.4-2,8.3h-27.5
	c-4.5,19.8-2,22.2,6.8,22.2s8.8-0.1,13-0.4l-1.4,6.8c-5.2,0.7-10.4,1.4-16.6,1.4c-16.8,0-27.5-6.5-20-38.8l0,0L186.8,190.6z
	 M206.7,192.2h8.1c5.6-25.2,5.6-28.4,2.6-28.4s-4.6,2.8-10.6,28.1v0.3L206.7,192.2z"/>
<path class="st1" d="M238.7,190.6c6.8-30.1,18.4-33.7,36.6-33.7s8.3,0.7,11.6,1.4l-1.4,6.8c-2.9-0.3-5.2-0.4-8-0.4
	c-8.7,0-12,3.1-17.8,28.1c-5.8,25-4.1,28.8,4.6,28.8s5.2-0.1,8.1-0.4L271,228c-3.9,0.7-8,1.4-12.5,1.4
	C240.3,229.4,231.6,220.6,238.7,190.6L238.7,190.6L238.7,190.6z"/>
<path class="st1" d="M300.2,122h20.7l-9.6,41.8c3.9-5.4,7.7-7.4,14.2-7.4s16.2,3.6,13,17.7l-12.7,54.7h-20.7l12.5-54.1
	c1.3-4.9,0.6-7.4-3.5-7.4s-2.5,0.1-3.8,0.7l-14,60.8h-20.7L300.2,122L300.2,122z"/>
<path class="st1" d="M382.6,170.2l-23.2,58.6h-15.8l9.6-106.8H373l-5.8,64.7l25.6-64.7h11.6l-4.2,68.2l25.5-68.2h8.7l-39.5,106.8
	H379L382.6,170.2L382.6,170.2z"/>
<path class="st1" d="M429.2,157.5h20.7l-16.4,71.4h-20.7L429.2,157.5z M435.1,132.1h20.7l-4.1,17.2H431L435.1,132.1z"/>
<path class="st1" d="M455.5,157.5H493l-1.6,7.2l-30,56.9h17.7l-1.7,7.2h-39.2l1.7-7.2l29.8-56.9h-15.8L455.5,157.5L455.5,157.5z"/>
<path class="st1" d="M483.8,205.6c4.5-20,13.5-22.5,29.4-22.5h3.2l1.7-7.2c1.7-8.4,0.6-11.1-8.3-11.1s-7.2,0.1-10.7,0.4l1.6-6.8
	c6.1-0.7,11.7-1.4,17.5-1.4c13.5,0,22.9,3.6,19.4,18.5l-12.3,53.4h-19.5l0.7-3.3c-3.3,2.9-6.4,4.1-11.3,4.1
	C486.7,229.7,479.9,222.6,483.8,205.6L483.8,205.6L483.8,205.6z M507.6,220.5l5.6-24.5v-0.6c0.1,0,1.6-6.1,1.6-6.1h-2.3
	c-2.9,0-5.6,1.1-9,15.5c-3.3,14-1.6,16.4,1.4,16.4s1.7-0.3,2.6-0.7l0,0L507.6,220.5z"/>
<path class="st1" d="M548.6,157.5h19.3l-1.3,5.4c2.9-3.8,6.2-5.4,9.7-5.4s3.9,0.1,5.9,1l-1.9,7.5c-1.3,0-2.8-0.1-4.5-0.1
	c-3.5,0.1-6.1,0.3-8.6,0.9l-14.3,62.1h-20.7L548.6,157.5L548.6,157.5z"/>
<path class="st1" d="M574.7,190.6c7-29.8,17.2-34.3,27.9-34.3s8.1,1.4,10.3,4.2l9-38.5h20.7L618,228.8h-20l0.9-3.6
	c-3.9,3.2-8.3,4.8-13.3,4.8C574.7,230,568.1,219.9,574.7,190.6L574.7,190.6L574.7,190.6z M599.3,219.6l12.3-53
	c-0.6-0.4-1.3-0.9-2.5-0.9c-4.3,0-7.5,1.6-13.5,27.4c-6.1,26.2-3.5,27.4,0.7,27.4S598.3,220.1,599.3,219.6L599.3,219.6L599.3,219.6z
	"/>
<path class="st1" d="M664.3,219.7v-23.2h6l3.7,10c0.5,1.3,0.8,2.8,1.3,4.2h0.2c0.5-1.4,0.8-2.9,1.3-4.2l3.5-10h6v23.2h-5.1v-7.9
	c0-2.3,0.4-5.8,0.7-8h-0.2l-1.9,5.5l-3.1,8.5h-3l-3.1-8.5l-1.9-5.5h-0.1c0.3,2.3,0.7,5.7,0.7,8v7.9H664.3L664.3,219.7z"/>
<path class="st1" d="M645.2,218.9l-6.9-23.2h5.9l2.6,10.6c0.7,2.5,1.2,4.9,1.8,7.4h0.2c0.7-2.5,1.2-4.9,1.8-7.4l2.6-10.6h5.7
	l-6.9,23.2H645.2L645.2,218.9z"/>
<path class="st1" d="M295.2,287.1v-6.8h47.2v6.8h-19.8v56.2H315v-56.2H295.2L295.2,287.1z M348.3,343.4v-47.2h7v7.1h0.5
	c0.9-2.3,2.4-4.2,4.7-5.7c2.3-1.5,4.8-2.2,7.6-2.2s1.2,0,2,0s1.4,0,1.8,0v7.4c-0.2,0-0.8-0.2-1.7-0.3c-0.9-0.1-1.8-0.2-2.7-0.2
	c-2.3,0-4.4,0.5-6.2,1.4c-1.8,0.9-3.2,2.3-4.2,3.9c-1,1.7-1.5,3.6-1.5,5.7v29.9h-7.3L348.3,343.4z M380.6,343.4v-47.2h7.3v47.2
	H380.6z M384.3,288.2c-1.4,0-2.6-0.5-3.7-1.4c-1-1-1.5-2.1-1.5-3.5s0.5-2.5,1.5-3.5s2.2-1.4,3.7-1.4s2.6,0.5,3.6,1.4
	c1,1,1.5,2.1,1.5,3.5s-0.5,2.5-1.5,3.5S385.7,288.2,384.3,288.2z M415,344.5c-3,0-5.7-0.6-8.1-1.7s-4.4-2.8-5.8-5s-2.2-4.8-2.2-7.9
	s0.5-4.9,1.6-6.6s2.5-3,4.3-4s3.8-1.7,5.9-2.2c2.2-0.5,4.4-0.9,6.6-1.2c2.9-0.4,5.2-0.6,7-0.8c1.8-0.2,3.1-0.5,3.9-1
	s1.3-1.3,1.3-2.5v-0.2c0-3-0.8-5.4-2.5-7.1c-1.6-1.7-4.1-2.5-7.5-2.5s-6.2,0.8-8.2,2.3s-3.3,3.1-4.1,4.9l-6.9-2.5
	c1.2-2.9,2.9-5.1,4.9-6.7c2.1-1.6,4.3-2.7,6.8-3.4c2.5-0.7,4.9-1,7.3-1s3.3,0.2,5.2,0.6c2,0.3,3.9,1.1,5.8,2.2s3.4,2.8,4.6,5
	s1.8,5.2,1.8,9v31.1h-7.3v-6.4H429c-0.5,1-1.3,2.1-2.5,3.3c-1.1,1.2-2.7,2.2-4.6,3s-4.2,1.2-7,1.2L415,344.5z M416.1,337.9
	c2.9,0,5.3-0.6,7.3-1.7s3.5-2.6,4.5-4.4s1.5-3.7,1.5-5.6v-6.6c-0.3,0.4-1,0.7-2,1s-2.2,0.5-3.6,0.8c-1.3,0.2-2.6,0.4-3.9,0.6
	c-1.3,0.1-2.3,0.3-3,0.4c-1.9,0.2-3.7,0.6-5.3,1.2c-1.6,0.5-2.9,1.3-3.9,2.4s-1.5,2.5-1.5,4.4s0.9,4.4,2.8,5.7
	c1.9,1.3,4.3,1.9,7.2,1.9L416.1,337.9z M457.2,280.4v63h-7.3v-63H457.2z M533.5,296.1L516,343.3h-7.4l-17.5-47.2h7.9l13.1,37.7h0.5
	l13-37.7H533.5z M561.2,344.3c-4.5,0-8.5-1-11.8-3s-5.8-4.9-7.6-8.5s-2.6-7.9-2.6-12.7s0.9-9.1,2.6-12.8c1.8-3.7,4.3-6.6,7.4-8.7
	c3.2-2.1,6.9-3.1,11.2-3.1s4.9,0.4,7.3,1.2c2.4,0.8,4.6,2.2,6.6,4s3.5,4.2,4.7,7.3c1.2,3,1.7,6.7,1.7,11.1v3.1h-36.4v-6.3h29
	c0-2.7-0.5-5-1.6-7.1c-1-2.1-2.5-3.7-4.5-5c-1.9-1.2-4.2-1.8-6.8-1.8s-5.4,0.7-7.5,2.2c-2.1,1.4-3.7,3.3-4.8,5.5
	c-1.1,2.3-1.7,4.7-1.7,7.3v4.2c0,3.6,0.6,6.6,1.8,9.1c1.3,2.5,3,4.3,5.2,5.6c2.2,1.3,4.8,1.9,7.7,1.9s3.6-0.3,5.2-0.8
	c1.6-0.6,2.9-1.4,4-2.5s2-2.5,2.6-4.1l7,2c-0.7,2.4-2,4.5-3.7,6.3s-3.9,3.2-6.5,4.2s-5.4,1.5-8.6,1.5L561.2,344.3z M591.8,343.4
	v-47.2h7v7.1h0.5c0.9-2.3,2.4-4.2,4.7-5.7s4.8-2.2,7.6-2.2s1.2,0,2,0s1.4,0,1.8,0v7.4c-0.2,0-0.8-0.2-1.7-0.3
	c-0.9-0.1-1.8-0.2-2.7-0.2c-2.3,0-4.3,0.5-6.2,1.4c-1.8,0.9-3.2,2.3-4.2,3.9c-1,1.7-1.5,3.6-1.5,5.7v29.9h-7.3L591.8,343.4z
	 M657.5,306.7l-6.5,1.8c-0.4-1.1-1-2.1-1.8-3.2c-0.8-1-1.8-1.9-3.2-2.6s-3.1-1-5.2-1s-5.3,0.7-7.2,2s-2.9,3-2.9,5s0.6,3.2,2,4.3
	c1.3,1,3.4,1.9,6.2,2.6l7,1.7c4.2,1,7.4,2.6,9.4,4.7c2.1,2.1,3.1,4.8,3.1,8.1s-0.8,5.1-2.3,7.3c-1.5,2.1-3.7,3.8-6.5,5
	s-6,1.8-9.7,1.8s-8.8-1-12-3.1c-3.1-2.1-5.2-5.1-6-9.2l6.9-1.7c0.7,2.5,1.9,4.4,3.7,5.7c1.8,1.3,4.3,1.9,7.2,1.9s6.1-0.7,8.1-2.2
	s3-3.2,3-5.2s-0.6-3-1.7-4.1c-1.1-1.1-2.9-2-5.3-2.5l-7.9-1.8c-4.3-1-7.5-2.6-9.5-4.8c-2-2.2-3-4.9-3-8.2s0.8-5,2.3-7.1
	s3.6-3.7,6.2-4.8c2.6-1.2,5.6-1.8,8.9-1.8s8.3,1,11,3.1s4.6,4.8,5.7,8.1V306.7z M669.3,343.4v-47.2h7.3v47.2H669.3z M673,288.2
	c-1.4,0-2.6-0.5-3.7-1.4c-1-1-1.5-2.1-1.5-3.5s0.5-2.5,1.5-3.5s2.2-1.4,3.7-1.4s2.6,0.5,3.6,1.4c1,1,1.5,2.1,1.5,3.5
	s-0.5,2.5-1.5,3.5S674.4,288.2,673,288.2z M709,344.3c-4.3,0-8-1-11.2-3s-5.7-4.9-7.5-8.5s-2.7-7.9-2.7-12.8s0.9-9.2,2.7-12.9
	c1.8-3.7,4.3-6.5,7.5-8.6c3.2-2,7-3,11.2-3s8,1,11.2,3s5.7,4.9,7.5,8.6s2.7,8,2.7,12.9s-0.9,9.1-2.7,12.8c-1.8,3.7-4.3,6.5-7.5,8.5
	S713.3,344.3,709,344.3z M709,337.8c3.2,0,5.9-0.8,8-2.5s3.6-3.8,4.6-6.6c1-2.7,1.5-5.6,1.5-8.8s-0.5-6.1-1.5-8.8
	c-1-2.7-2.6-4.9-4.6-6.6c-2.1-1.7-4.8-2.5-8-2.5s-5.9,0.8-8,2.5s-3.6,3.9-4.6,6.6s-1.5,5.7-1.5,8.8s0.5,6.1,1.5,8.8
	c1,2.7,2.6,4.9,4.6,6.6C703.1,337,705.7,337.8,709,337.8z M748.8,314.9v28.4h-7.3v-47.2h7v7.4h0.6c1.1-2.4,2.8-4.3,5-5.8
	c2.3-1.5,5.2-2.2,8.7-2.2s6,0.7,8.4,2s4.3,3.3,5.6,5.9s2,5.9,2,10v30h-7.3v-29.5c0-3.7-1-6.6-2.9-8.7s-4.6-3.1-7.9-3.1
	s-4.4,0.5-6.2,1.5s-3.2,2.5-4.3,4.4s-1.6,4.3-1.6,7L748.8,314.9z"/>
</svg>
