<?xml version="1.0" encoding="utf-8"?>
<!-- Generator: Adobe Illustrator 24.0.1, SVG Export Plug-In . SVG Version: 6.00 Build 0)  -->
<svg version="1.1" id="Layer_1" xmlns="http://www.w3.org/2000/svg" xmlns:xlink="http://www.w3.org/1999/xlink" x="0px" y="0px"
	 viewBox="0 0 841.9 485.7" style="enable-background:new 0 0 841.9 485.7;" xml:space="preserve">
<style type="text/css">
	.st0{fill-rule:evenodd;clip-rule:evenodd;fill:#006FEE;}
	.st1{fill:#0B66AF;}
</style>
<path class="st0" d="M72.5,463c8,4.9,14.1,12.4,27.4,12.4c24.9-36-34.4-49.7,68.7-126.7c25.1-18.8,22-20.8,43.7-22.1
	c43.8-2.5,80,3.1,114.6-16.8c9.3-5.4,29.3-21.7,37.3-29c10.7-9.7,3.4-8.7,22.1-6.8c10.7,1.1,21.8,1.7,32.6,1.2
	c-29.4-30.7-119.3-66.9-168.2-75c-12.4,25-9.3,65.5-26.8,82.1c-9.3,8.8-23.8,12-39,16.5c-14.3,4.3-24.4,13.8-33.7,21.7
	c-14.8,12.5-38.3,40-50.3,60.5C86.8,405.3,71.3,425.8,72.5,463"/>
<path class="st0" d="M552.8,182.7c-14.2,6.4-51.7,32.4-65.6,42.5c-12,8.7-48.7,37.5-59.6,50c15.7,0.1,37.3-6.8,50.3-1.9
	c15.9,5.9,30.9,9,49.5,5.8l85.5-27.1c19.3-3.8,31.5-8.6,54-9c4.9,21.2,18.6,39.8,21.4,64.6L654,305c-0.9,11.6,11.2,42.5,16.5,50
	c31.8-2.3,46.1-35.4,45-70.1c-0.9-28.4-17.5-70.1-29.9-87.9c-28.4-3.7-47.2,12.8-65,11.3c-11.1-1-12.6-11.9-17.2-20.3
	c-4.5-8.2-8.6-18.7-13.6-25.5L552.8,182.7z"/>
<path class="st0" d="M552.4,118.5c-23.7-4-30.7-6.6-60.9,0c-23.4,5.1-40.7,11.5-66.7,10c-24.3-1.3-44.5-7.1-70.8-6.5
	c-20.2,0.5-50.7,3.4-66.7,11.2c54.9,1.8,104.1,16.2,142.2,15.3c28.2-0.7,38-10.1,61.5-16.4c22-6,45.2-9.4,69.4-9.7l2.3-1.2"/>
<path class="st0" d="M560.5,167.5c18.3-6.7,43.4-21.8,63.3-30.7c12.1-5.4,54.8-25,66.1-26.2c8.4,9.9,14.4,19.8,32.3,20.2
	c17.2,0.4,27.7-5.3,37.9-15.3c-18.6-1.3-39.3,1.9-50.3-10.9c-12.5-14.5,2.4-32.8,17.7-35c13.2-1.9,2.2,7,37.7,22.8
	c16.8,7.4,21.8,18.1,32.4,28.9l-7,12.7l-30.4-4.8c10.1,32.8,53.2,35.1,52.9-4.6c-10.1-10.4-19.5-16.2-28.5-26.9
	c-8.8-10.4-14.7-19.1-23.4-32.1c-7.9-11.8-44.4-52.9-57.5-55.1c-4.6,5.2-8.5,15.3-10.5,23.4c-32.1-3.2-66.5-14.6-99.9-8.7
	c-24.4,4.3-64.2,21.7-74.4,36.3c2.9,2.8,6.9,3.5,10.2,5.6c-6.9,4.8-46.3,26.3-65.6,39.2c-4.1,2.7-6.6,4.7-9.9,7
	c-5.2,3.5-6.9,3.9-10.6,9c26.2,0.8,46.6-7.9,71.2-9.8c32.8-2.6,20,1.2,56.5-23.7c23.7-16.2,76.3-46.3,114.4-45.6
	c-7.6,7.8-23.5,11-35.2,15.5c-25,9.7-59.9,42-97.7,56.4c6.5,2.7,7.9,4,12.6,5.3l12.4-6.5c6.5-3.7,11.9-6.5,18.9-10.4
	c25.1-13.8,51.5-31.1,78.2-40.5c12.9-4.5,24.7-7.2,38.7-6.3c2.3,0.1,4.9,0.3,7,0.9c0.5,0.1,2,0.6,2.4,0.8c4.3,1.7,1.8,0.7,3.4,1.8
	c-28.6,6.8-78.4,27.7-103.5,40.2c-16.3,8.1-86.2,41.8-92.2,51.4c-11.3,1.7-65.8,44.7-76.1,54.6c-6.8,6.6-17.2,17.1-23,21
	c-9.5-10.2-16-14.4-25.4-23.3c-33.6-32.3-95.5-64.4-143-75.7c-40-9.5-79.1-11.8-121-6.1c-24.1,3.3-92.1,19.8-101.7,33.7
	c27.5-2.7,47.8-8.7,73.8,1.2c-0.3,0.2-0.8,0.2-1,0.6c-0.2,0.5-0.8,0.5-1,0.6c-8.3,3.9-22.5,4.1-46.4,16.8
	c-12.9,6.9-30.5,18.8-36.8,29.5c15.5-2.3,33.7-8.1,50.5-11.2c92.9-17.4,180.1-15.3,265.9,25c44.4,20.9,56.1,36.5,76.7,48.4
	c4.5-1.5,26.3-21,32.4-26.4c15.4-13.8,51.2-39.1,69.8-50.4C529,186.7,559.1,169.5,560.5,167.5z"/>
<path class="st1" d="M1119.8,989.2v4.7c-0.3,2.1,0.8,3,3.1,2.7h25.1v-7.5H1119.8z M1119.8,975.4v7h28.3v-7H1119.8z M1123.3,961.3
	c-2.6,0-3.8,0.9-3.5,2.7v4.7h28.3v-7.5H1123.3z M1119.8,953.8h70.3c2.4,0,3.7,1.2,3.9,3.5c-0.3,2.6-1.6,3.9-3.9,3.9h-34.5v7.5h30.2
	c2.4,0,3.7,1.1,3.9,3.2c0,2.3-1.2,3.5-3.5,3.5h-30.6v7h30.2c2.1,0,3.1,1.1,3.1,3.2c0,2.4-1.1,3.5-3.1,3.5h-30.2v7.5h32.6
	c4.7,0.3,7.2,2.9,7.5,7.9c0.3,21.2-1.6,32.6-5.5,34.1c-4.5,3.9-12,4.5-22.8,1.6c-2.1-0.8-2.9-2.4-2.4-4.7c0.8-2.4,2.2-3.4,4.3-3.2
	c6,2.1,10.7,2.4,14.1,0.8c2.9,0.5,4.3-8,4.3-25.5c0.3-2.3-0.9-3.4-3.5-3.1h-64.8c-5,0.3-7.3-2.2-7.1-7.4v-36.9
	C1111.8,955.7,1114.3,953.6,1119.8,953.8z M1051.9,1005.3v19.2c0,1.6,0.1,2.4,0.4,2.4c0.5,0.3,1.2-0.1,2-1.2
	c2.1-2.4,3.7-4.7,4.7-7.1c1.6-2.4,3.4-3.1,5.5-2.4c2.1,1.3,2.5,3.1,1.2,5.5c-2.9,5.2-6.1,9.4-9.8,12.6c-2.6,2.4-5.2,3-7.9,2
	c-2.3-1-3.5-3.4-3.5-7.1v-23.9c0-2.6,1.3-4.1,3.9-4.3C1050.7,1001.2,1051.9,1002.6,1051.9,1005.3z M1036.2,1004.1
	c0.3,14.4-4.1,27-12.9,37.7c-2.1,2.3-4.2,2.7-6.3,1.2c-1.8-1.8-1.7-4.1,0.4-6.7c7.9-8.4,11.8-19.1,11.8-32.2c0-2.6,1.2-4.1,3.5-4.3
	C1035.1,1000,1036.2,1001.5,1036.2,1004.1z M1057.8,1033.9c5.5-2.9,10.9-8.5,16.1-16.9c-3.9-8.9-6.1-19.1-6.7-30.6
	c-0.3,0.5-0.8,1.4-1.6,2.7c-0.5,0.8-0.8,1.3-0.8,1.6c-1.6,1.8-3.3,2.2-5.1,1.2c-1.8-1.3-2.2-3-1.2-5.1c5.5-9.2,8.6-19.9,9.4-32.2
	c0.3-2.3,1.6-3.7,3.9-3.9c2.4,0.3,3.5,1.7,3.5,4.3c0,0.5-0.1,1.3-0.4,2.3c0,1.8-0.3,3.5-0.8,5.1h17.7c2.4,0,3.7,1.2,3.9,3.5
	c-0.3,2.6-1.6,3.9-3.9,3.9h-3.1c0.3,18.6-2.1,34.4-7.1,47.5c2.6,5.5,6.8,11.4,12.6,17.7c1.8,2.4,2,4.6,0.4,6.7
	c-1.8,1.8-3.8,1.7-5.9-0.4c-3.7-3.9-7.5-9.3-11.4-16.1c-5.2,7.3-10.2,12.6-14.9,15.7c-2.6,1.8-4.7,1.6-6.3-0.8
	C1054.9,1037.8,1055.5,1035.7,1057.8,1033.9z M1073.1,969.9l-1.2,4.7c0.5,13.6,2.5,24.9,5.9,33.7c2.6-9.2,3.9-22,3.9-38.5H1073.1z
	 M1045.3,953.8v22.4h5.5c2.1,0.3,3-0.7,2.7-2.7v-14.1c0-2.1,1.3-3.1,3.9-3.1c2.3,0,3.5,1.1,3.5,3.1v17.3c0.3,5-2.1,7.3-7.1,7.1
	h-24.7c-4.7,0.3-6.9-2.1-6.7-7.1v-17.3c0-2.1,1.2-3.1,3.5-3.1c2.3,0,3.5,1.1,3.5,3.1v14.1c0,1.8,1,2.7,3.1,2.7h5.1v-22.4
	c0.3-1.8,1.6-2.9,3.9-3.1C1044.1,951,1045.3,952,1045.3,953.8z M1014.3,993.5v45.1c0,2.6-1.2,4.1-3.5,4.3c-2.6-0.3-3.9-1.7-3.9-4.3
	v-35.7c-0.3,0.5-0.9,1.3-2,2.4c-2.4,1.8-4.3,1.8-5.9,0c-1.3-2.1-0.9-4.2,1.2-6.3c5-4.2,9-10.3,12.2-18.5c1.1-2.1,2.7-2.9,5.1-2.3
	c2.1,1,2.7,2.7,2,5.1C1018.6,985.9,1016.9,989.3,1014.3,993.5z M1017,955.4c-1.8,8.9-5.6,16.6-11.4,23.2c-1.8,2.1-3.7,2.5-5.5,1.2
	c-1.8-1.6-1.8-3.5,0-5.9c5-5.8,8.2-12.3,9.8-19.6c0.8-2.6,2.3-3.8,4.7-3.5C1016.7,951.2,1017.5,952.8,1017,955.4z M1113.1,1013.8
	c3.5,0,6.4,2.9,6.4,6.4c0,3.6-2.9,6.4-6.4,6.4c-3.6,0-6.4-2.9-6.4-6.4C1106.7,1016.7,1109.6,1013.8,1113.1,1013.8z M1131.3,1013.8
	c3.6,0,6.4,2.9,6.4,6.4c0,3.6-2.9,6.4-6.4,6.4s-6.4-2.9-6.4-6.4C1124.9,1016.7,1127.8,1013.8,1131.3,1013.8z M1149.5,1013.8
	c3.6,0,6.4,2.9,6.4,6.4c0,3.6-2.9,6.4-6.4,6.4c-3.6,0-6.4-2.9-6.4-6.4C1143.1,1016.7,1145.9,1013.8,1149.5,1013.8z M1167.7,1013.8
	c3.6,0,6.4,2.9,6.4,6.4c0,3.6-2.9,6.4-6.4,6.4s-6.4-2.9-6.4-6.4C1161.2,1016.7,1164.1,1013.8,1167.7,1013.8z M1056.6,998.6h-34.9
	c-2.1,0-3.3-1.2-3.5-3.5c0.3-2.3,1.4-3.5,3.5-3.5h34.9c2.1,0,3.3,1.2,3.5,3.5C1059.9,997.4,1058.7,998.6,1056.6,998.6z"/>
</svg>
