<?xml version="1.0" encoding="utf-8"?>
<!-- Generator: Adobe Illustrator 24.0.1, SVG Export Plug-In . SVG Version: 6.00 Build 0)  -->
<svg version="1.1" id="_圖層_1" xmlns="http://www.w3.org/2000/svg" xmlns:xlink="http://www.w3.org/1999/xlink" x="0px" y="0px"
	 viewBox="0 0 800 350.9" style="enable-background:new 0 0 800 350.9;" xml:space="preserve">
<style type="text/css">
	.st0{fill:#338EF7;}
	.st1{fill:#B0DBF4;}
</style>
<g>
	<path class="st0" d="M350.9,236.4l-16.7,33.9c-0.2,0.5-0.6,0.9-1.2,1.3c-0.5,0.4-1.1,0.5-1.7,0.5s-1.2-0.1-1.7-0.5
		c-0.5-0.4-0.9-0.7-1.2-1.3L312,236.4h7.1l12.3,25.3l12.4-25.3L350.9,236.4L350.9,236.4z"/>
	<path class="st0" d="M365.2,239.7h-6.4v-5.8h6.4V239.7z M365.2,271.6h-6.4v-26.5h6.4V271.6z"/>
	<path class="st0" d="M402,262.6c0,1.1-0.1,2.1-0.5,3c-0.2,0.8-0.6,1.7-1.1,2.2c-0.5,0.7-0.9,1.2-1.5,1.7c-0.6,0.5-1.2,0.8-1.9,1.2
		c-0.7,0.4-1.3,0.5-2,0.6c-0.7,0.1-1.3,0.2-1.9,0.2h-17.3v-6.4H393c0.8,0,1.5-0.2,2-0.7c0.5-0.5,0.7-1.1,0.7-1.9
		c0-1.7-0.9-2.6-2.6-2.6h-9.8c-1.4,0-2.6-0.2-3.5-0.7c-0.9-0.5-1.8-1.1-2.4-1.9c-0.6-0.7-1.1-1.5-1.3-2.4c-0.2-0.8-0.4-1.7-0.4-2.4
		c0-1.4,0.2-2.6,0.7-3.5s1.2-1.8,1.9-2.4c0.7-0.6,1.7-1.1,2.5-1.3c0.9-0.2,1.8-0.4,2.5-0.4h15.6v6.4h-15.6c-0.4,0-0.6,0-0.8,0
		c-0.2,0-0.4,0.1-0.5,0.2c0,0.1-0.1,0.2-0.1,0.4c0,0.1,0,0.2,0,0.4c0,0.2,0,0.5,0.1,0.6c0,0.1,0.2,0.2,0.4,0.4c0.1,0,0.2,0,0.5,0
		c0.1,0,0.4,0,0.5,0h9.8c1.7,0,3.1,0.2,4.1,0.8c1.2,0.6,2,1.3,2.7,2.2c0.7,0.9,1.2,1.9,1.5,3c0.4,1.1,0.5,2,0.5,3L402,262.6z"/>
	<path class="st0" d="M417.8,239.7h-6.4v-5.8h6.4V239.7z M417.8,271.6h-6.4v-26.5h6.4V271.6z"/>
	<path class="st0" d="M457.8,262.6c0,1.1-0.1,2.1-0.5,3c-0.2,0.8-0.6,1.7-1.1,2.2c-0.5,0.7-0.9,1.2-1.5,1.7
		c-0.6,0.5-1.2,0.8-1.9,1.2c-0.7,0.2-1.3,0.5-2,0.6c-0.7,0.1-1.3,0.2-1.9,0.2h-11.5c-0.8,0-1.9-0.1-2.8-0.5c-1.1-0.4-2-0.8-3-1.5
		c-0.9-0.7-1.7-1.7-2.2-2.7c-0.6-1.2-0.9-2.5-0.9-4.1V254c0-1.7,0.4-3.1,0.9-4.1c0.6-1.2,1.3-2,2.2-2.7c0.9-0.7,1.9-1.2,3-1.5
		c1.1-0.4,2-0.5,2.8-0.5h11.5c1.7,0,3.1,0.2,4.1,0.8c1.2,0.6,2,1.3,2.7,2.2c0.7,0.9,1.2,1.9,1.5,3c0.4,1.1,0.5,2,0.5,3v8.6
		L457.8,262.6z M451.4,254c0-0.8-0.2-1.5-0.7-2c-0.5-0.5-1.1-0.6-1.9-0.6h-11.5c-0.8,0-1.5,0.2-1.9,0.6c-0.4,0.4-0.7,1.1-0.7,1.9
		v8.6c0,0.8,0.2,1.4,0.7,1.9c0.5,0.5,1.1,0.7,1.9,0.7h11.5c0.8,0,1.5-0.2,1.9-0.7c0.5-0.5,0.6-1.1,0.6-1.9v-8.6L451.4,254z"/>
	<path class="st0" d="M497.6,271.6h-6.4V257c0-0.8-0.1-1.5-0.5-2.2c-0.2-0.7-0.7-1.2-1.2-1.7c-0.5-0.5-1.1-0.8-1.8-1.1
		s-1.4-0.4-2.1-0.4h-11.1v20.1h-6.4v-23.3c0-0.5,0-0.8,0.2-1.2c0.1-0.4,0.4-0.7,0.7-0.9c0.2-0.2,0.6-0.5,1.1-0.7
		c0.4-0.1,0.8-0.2,1.3-0.2h14.3c0.8,0,1.7,0,2.5,0.2c0.9,0.2,1.8,0.5,2.6,0.8c0.8,0.4,1.7,0.9,2.5,1.5c0.8,0.6,1.5,1.3,2.1,2.2
		c0.6,0.8,1.1,1.9,1.4,3.1c0.4,1.2,0.6,2.5,0.6,3.9v14.7L497.6,271.6z"/>
	<path class="st0" d="M549.7,271.6h-6.4v-20.9L532,270.5c-0.2,0.5-0.7,0.9-1.2,1.2c-0.5,0.2-1.1,0.4-1.7,0.4s-1.1-0.1-1.5-0.4
		c-0.5-0.2-0.8-0.6-1.2-1.2l-11.3-19.9v20.9h-6.4v-32.4c0-0.7,0.2-1.4,0.6-2c0.5-0.6,0.9-0.9,1.7-1.2c0.4,0,0.7,0,1.1,0
		c0.4,0,0.7,0,0.9,0.2c0.4,0.1,0.6,0.2,0.8,0.5c0.2,0.2,0.5,0.5,0.7,0.8l14.5,25.2l14.5-25.2c0.4-0.6,0.9-1.1,1.5-1.3
		c0.7-0.2,1.3-0.4,2.1-0.1c0.7,0.2,1.3,0.6,1.7,1.2c0.5,0.6,0.7,1.2,0.7,2v32.4L549.7,271.6z"/>
	<path class="st0" d="M588.8,262.7c0,0.8-0.1,1.9-0.5,2.8c-0.4,1.1-0.8,2-1.5,2.8c-0.7,0.8-1.7,1.7-2.7,2.2c-1.1,0.6-2.5,0.8-4,0.8
		h-11.5c-0.8,0-1.9-0.1-2.8-0.5c-1.1-0.4-2-0.8-2.8-1.5c-0.8-0.7-1.7-1.7-2.2-2.7c-0.6-1.1-0.8-2.5-0.8-4c0-1.5,0.1-1.9,0.5-2.8
		c0.4-1.1,0.8-2,1.5-2.8c0.7-0.8,1.7-1.7,2.7-2.2c1.1-0.6,2.5-0.8,4-0.8H580v6h-11.5c-0.8,0-1.5,0.2-2,0.8c-0.5,0.5-0.7,1.2-0.7,2
		c0,0.8,0.2,1.5,0.8,1.9c0.6,0.5,1.2,0.7,1.9,0.7H580c0.8,0,1.5-0.2,2-0.8c0.5-0.5,0.7-1.2,0.7-2v-8.9c0-0.8-0.2-1.5-0.8-2
		c-0.5-0.5-1.2-0.7-1.9-0.7h-14v-6h14c0.8,0,1.9,0.1,2.8,0.5c1.1,0.4,2,0.8,2.8,1.5s1.7,1.7,2.2,2.7s0.8,2.5,0.8,4V262.7
		L588.8,262.7z"/>
	<path class="st0" d="M623.3,251.4h-11.1v20.1h-6.4v-20.1h-8.3V245h8.3v-8.6h6.4v8.6h11.1V251.4L623.3,251.4z"/>
	<path class="st0" d="M655.7,251.4h-14.3c-0.8,0-1.5,0.2-2,0.6c-0.5,0.5-0.7,1.1-0.7,1.9v17.6h-6.4v-17.6c0-1.1,0.1-2.1,0.5-3
		c0.2-0.8,0.6-1.7,1.1-2.2c0.5-0.7,0.9-1.2,1.7-1.7c0.6-0.5,1.2-0.8,1.9-1.2c0.7-0.2,1.3-0.5,2-0.6c0.7-0.1,1.3-0.2,1.9-0.2h14.4
		L655.7,251.4L655.7,251.4z"/>
	<path class="st0" d="M671.4,239.7H665v-5.8h6.4V239.7z M671.4,271.6H665v-26.5h6.4V271.6z"/>
	<path class="st0" d="M712.8,245.1l-11.5,12.5l12.9,14h-8.7l-8.5-9.2l-8.5,9.2h-8.7l12.9-14.1l-11.3-12.4h8.7l7,7.7l7.1-7.7H712.8
		L712.8,245.1z"/>
</g>
<g>
	<path class="st0" d="M751.3,110.3c2-1.7,4.5-4,6.7-6.7c0.6-0.7,0.9-0.5,1.4,0c5,5,10.1,9.9,15.1,14.9c2.1,2.2,2,5.6,0,7.7
		s-5.6,2.5-7.7,0.4C761.6,121.3,756.5,115.7,751.3,110.3L751.3,110.3z"/>
	<path class="st0" d="M722.7,35.4c-21.4-0.2-39.3,17.4-39.6,38.8c0,0.2,0,0.4,0,0.7H694c0-15.7,12.8-28.4,28.5-28.4
		c15.8,0,28.4,12.8,28.3,28.6c0,11.3-6.8,21.1-16.5,25.6v11.8c15.7-5,27.2-19.7,27.4-37.2c0.2-21.9-17.2-39.6-39.2-39.8L722.7,35.4z
		"/>
</g>
<g>
	<path class="st1" d="M298.7,195.9h-16.5V138l-29.1,55c-0.7,1.4-1.7,2.5-3,3.2s-2.7,1.1-4.1,1.1s-2.8-0.4-4-1.1
		c-1.2-0.7-2.2-1.8-2.9-3.2l-29.2-55v57.9h-16.4v-89.7c0-2,0.6-3.8,1.7-5.4c1.1-1.6,2.6-2.6,4.4-3.2c0.9-0.2,1.8-0.3,2.6-0.2
		s1.7,0.3,2.6,0.6c0.8,0.3,1.6,0.8,2.2,1.4c0.7,0.6,1.2,1.3,1.7,2.2l37.3,69.8l37.3-69.8c1-1.7,2.3-2.9,4-3.7
		c1.7-0.7,3.5-0.8,5.3-0.3s3.2,1.6,4.3,3.2c1.1,1.6,1.7,3.4,1.7,5.4v89.7H298.7z"/>
	<path class="st1" d="M437.2,98.6l-42.8,93.8c-0.7,1.4-1.7,2.6-3,3.5s-2.8,1.3-4.4,1.3s-3-0.4-4.3-1.3c-1.3-0.9-2.3-2-3.1-3.5
		l-42.7-93.8h18.3l31.8,70.1l31.9-70.1L437.2,98.6L437.2,98.6z"/>
	<path class="st1" d="M573.1,167.3c0,3.5-0.4,6.6-1.2,9.4c-0.8,2.8-1.9,5.2-3.2,7.4c-1.3,2.1-2.9,3.9-4.7,5.4s-3.7,2.7-5.6,3.7
		c-1.9,0.9-3.9,1.7-5.9,2.1c-2,0.5-3.9,0.7-5.6,0.7h-63.2v-17.6h63.2c3.2,0,5.6-1,7.3-3s2.6-4.7,2.6-8s-0.2-3.1-0.7-4.5
		s-1.1-2.5-2-3.5s-1.9-1.8-3.2-2.3c-1.2-0.5-2.6-0.8-4.1-0.8h-37.7c-2.6,0-5.5-0.5-8.6-1.5s-5.9-2.7-8.5-4.9
		c-2.6-2.3-4.8-5.2-6.6-8.9c-1.7-3.7-2.6-8.1-2.6-13.4s0.9-9.8,2.6-13.4s3.9-6.6,6.6-8.9c2.6-2.3,5.5-3.9,8.5-5
		c3.1-1,5.9-1.5,8.6-1.5h55.8v17.6h-55.8c-3.1,0-5.5,1-7.3,3.1c-1.7,2-2.6,4.7-2.6,8.1c0,3.4,0.9,6.1,2.6,8c1.7,2,4.2,3,7.3,3h37.8
		c1.8,0,3.6,0.3,5.6,0.8s3.9,1.2,5.9,2.2s3.8,2.2,5.6,3.8s3.3,3.3,4.7,5.5c1.4,2.1,2.4,4.6,3.2,7.3c0.8,2.8,1.2,5.9,1.2,9.4
		L573.1,167.3z"/>
	<path class="st1" d="M709.9,196.6h-59.1c-2.3,0-4.7-0.4-7.4-1.3c-2.7-0.9-5.2-2.3-7.5-4.2c-2.3-2-4.2-4.5-5.7-7.7
		c-1.5-3.1-2.3-7-2.3-11.6v-63.6c0-1.2,0.2-2.4,0.6-3.5c0.4-1.1,1-2,1.7-2.8s1.6-1.4,2.6-1.9s2.1-0.7,3.3-0.7h73.8v17.6h-65.7v54.9
		c0,2.3,0.6,4.1,1.7,5.3c1.1,1.2,2.8,1.8,5,1.8h59L709.9,196.6L709.9,196.6z M702.6,156.8h-51.7V139h51.7V156.8z"/>
</g>
<g>
	<path class="st1" d="M147,319.1c-1.9,0.4-3.8,1-5.7,1.4c-13.3,2.7-26.1,1.6-36.8-7.2c-22.2-18.1-25.7-56.9-26.6-83.8
		c0-1.1,1.2-1.9,2.2-1.4c0.8,0.4,1.3,0.7,1.8,1.1c25.1,18.8,52.9,32.2,83.1,40.4c20.6,5.6,41.3,9,62.2,8.1c2.5-0.1,4.4-2.2,4.2-4.6
		l0,0c-0.2-4.1-3.7-7.3-7.8-7.3l0,0c-53-0.3-99.5-18.9-141.1-50.9c-3-2.3-3.2-4.8-2.7-8.1c7.3-47.8,26.6-90,59.5-125.5
		c14.1-15.2,30.5-27.7,51.1-33.3c31.1-8.5,51.5,11.4,58.1,32.1c0.4,1.2-0.8,2.3-2,1.8l0,0c-3.9-1.8-7.7-1.7-9.4,2.7
		c-1.7,4.4,1.2,6.8,5.1,8.4c4.2,1.7,8.3,3.6,12.4,5.3c5.9,2.4,8.3,1.4,11-4.5c1.7-3.8,3.3-7.6,4.9-11.3c1.5-3.5,3-7.2-1.1-10
		c-3.3-2.2-5.8-1-8,1.5c-0.7,0.8-2,0.6-2.4-0.3s-0.5-1.1-0.8-1.6c-14.5-30.4-50.2-44.6-81.5-31.9c-10.3,4.2-19.8,10-28.5,17.1
		C111.5,87.2,89.3,126.4,75.5,171c-2.8,9-4.7,18.3-6.7,28.5c-0.2,1.2-1.7,1.6-2.5,0.7c-16-17.3-28.7-35.1-30.3-58.8
		c-1.4-21.7,14.9-39.9,34-45.5c1.1-0.3,2.2,0.8,1.8,1.9c0,0.3-0.2,0.5-0.3,0.8c-1.2,3.6-0.9,6.8,3,8.4c4.2,1.7,6.6-0.7,8.2-4.4
		c2.1-4.9,4.2-9.7,6.2-14.6c1.7-4,0.4-6.9-3.4-8.7c-4.5-2-9-3.9-13.5-5.9c-3.4-1.5-6.9-2.7-9.5,1.1c-2.3,3.4-1.1,5.9,1.5,8.2
		c0.8,0.7,0.6,2-0.3,2.5s-0.5,0.2-0.7,0.3c-35.2,15.6-47.7,46.6-33,82.3c7.3,17.5,18.6,32.3,32.4,45.2c2.8,2.6,4.2,6.4,3.9,10.2
		c-0.9,12.1,0.7,37.9,3.1,49.8c3.4,17.4,9.6,33.6,23.1,46c16.8,15.4,36.5,17.5,57.7,11.6c3.4-1,5.5-3.4,4.6-7.1c-0.9-4-4-5-7.8-4.2
		L147,319.1z"/>
	<path class="st1" d="M246.2,265.4c3.7,0.5,5.9,2.5,5.9,5.8c0,3.5-2.2,6-5.9,5.9c-3.7-0.2-5.7-2.5-5.5-6.3
		C240.9,267.3,243.4,265.9,246.2,265.4z"/>
	<path class="st1" d="M170.9,313.4c3.2,2,4.4,4.6,3.1,7.7c-1.4,3.2-4.4,4.7-7.8,3.1c-3.3-1.6-4.3-4.5-2.6-7.9
		c1.6-3.1,4.4-3.5,7.2-2.8L170.9,313.4z"/>
</g>
<g>
	<path class="st0" d="M289.9,214.9c3.7,0.5,5.9,2.5,5.9,5.8c0,3.5-2.2,6-5.9,5.9c-3.7-0.2-5.7-2.5-5.5-6.3
		C284.6,216.8,287.1,215.4,289.9,214.9z"/>
	<path class="st0" d="M243.3,291.4c3.2,2,4.4,4.6,3.1,7.7c-1.4,3.2-4.4,4.7-7.8,3.1c-3.3-1.6-4.3-4.5-2.6-7.9
		c1.6-3.1,4.4-3.5,7.2-2.8L243.3,291.4z"/>
	<path class="st0" d="M221.4,304.3c-1.6,1.1-3.1,2.4-4.7,3.5c-11.1,7.7-23.3,11.8-36.7,8c-27.5-7.8-46.1-42.1-57.5-66.4
		c-0.5-1,0.3-2.2,1.4-2.1s1.5,0.1,2.1,0.3c30.5,7.3,61.3,8.6,92.3,4.3c21.2-3,41.5-8.1,60.3-17.1c2.2-1.1,3.1-3.7,2-5.9l0,0
		c-1.8-3.7-6.2-5.3-10-3.6l0,0c-48.8,20.7-98.8,22-149.7,9.1c-3.6-0.9-4.9-3.1-5.7-6.4c-12.2-46.8-11.2-93.2,5-138.9
		c7-19.6,17-37.5,33.7-50.8c25.2-20.1,51.8-9.9,66,6.5c0.8,0.9,0.1,2.4-1.1,2.4l0,0c-4.3,0-7.7,1.5-7.5,6.2c0.2,4.8,3.8,5.8,8,5.7
		c4.5-0.1,9,0,13.5,0c6.4,0,8.2-2,8.3-8.5c0-4.1,0-8.2,0-12.4c0-3.9,0-7.8-4.9-8.7c-3.9-0.7-5.7,1.4-6.8,4.5
		c-1.1,3.1-1.6,1.3-2.4,0.6s-0.9-0.8-1.3-1.2c-25.4-22.2-63.8-21-87.4,3c-7.8,8-14.2,17-19.4,26.9c-21.9,42-26.7,86.8-21.8,133.2
		c1,9.4,2.9,18.7,5.1,28.8c0.3,1.2-0.9,2.2-2,1.7c-21.6-9.6-40.3-20.9-51-42c-9.9-19.4-2.1-42.5,13.3-55.2c0.9-0.8,2.3-0.2,2.4,1
		c0,0.3,0,0.6,0,0.8c0.3,3.7,1.8,6.6,6,6.5c4.6,0,5.8-3.2,5.8-7.2c0-5.3,0-10.6,0-15.9c0-4.3-2.3-6.5-6.6-6.6c-4.9,0-9.8,0-14.7,0
		c-3.7,0-7.4,0.3-8.3,4.7c-0.8,4,1.3,5.9,4.6,6.9s1.4,1.6,0.7,2.4s-0.3,0.4-0.5,0.6c-26.1,28.3-25.4,61.7,2.3,88.6
		c13.6,13.2,29.9,22.3,47.6,28.7c3.6,1.3,6.4,4.2,7.6,7.8c4,11.5,15.6,34.5,22.5,44.6c10,14.7,22.1,27.1,39.4,33.1
		c21.6,7.5,40.4,1.7,57.5-12.2c2.8-2.2,3.7-5.3,1.4-8.3c-2.4-3.3-5.7-3-8.8-0.8L221.4,304.3z"/>
</g>
</svg>
